<svg enable-background="new 0 0 256 256" height="512" viewBox="0 0 256 256" width="512" xmlns="http://www.w3.org/2000/svg"><path d="m174.643 95.924c-5.02 0-8.111-5.487-5.511-9.781l20.661-34.114h-100.571c-4.204 0-7.644 3.44-7.644 7.645v75.014c0 4.205 3.44 7.645 7.644 7.645h127.992c4.204 0 7.644-3.44 7.644-7.645v-38.764z" fill="#edf4fc"/><path d="m154.643 97.142h-58.292c-.69 0-1.25.56-1.25 1.25v18.851c0 .69.56 1.25 1.25 1.25h58.292c.69 0 1.25-.56 1.25-1.25v-18.851c0-.69-.559-1.25-1.25-1.25z" fill="#c7d7e5"/><path d="m252.558 86.143-36.202-59.776c-2.507-4.14-8.514-4.14-11.022 0l-36.202 59.776c-2.601 4.294.491 9.781 5.511 9.781h72.404c5.02 0 8.112-5.487 5.511-9.781z" fill="#fc657e"/><path d="m180.078 68.069h-98.501v16.813h88.318z" fill="#29589f"/><path d="m212.662 42.765c-1.189-.324-2.444-.324-3.633 0-3.515.959-5.68 4.484-4.946 8.053l3.236 15.719c.344 1.673 1.818 2.874 3.526 2.874s3.181-1.201 3.526-2.874l3.236-15.719c.735-3.569-1.43-7.094-4.945-8.053z" fill="#f5c84c"/><circle cx="210.845" cy="81.462" fill="#f5c84c" r="5.651"/><path d="m184.31 119.71c0-4.04 2.044-7.601 5.153-9.71-2.001-1.591-4.529-2.548-7.284-2.548-6.475 0-11.724 5.249-11.724 11.724s5.249 11.724 11.724 11.724c2.436 0 4.697-.743 6.572-2.015-2.703-2.146-4.441-5.455-4.441-9.175z" fill="#fc657e"/><path d="m196.035 107.985c-2.436 0-4.697.743-6.572 2.015 2.702 2.148 4.44 5.457 4.44 9.177 0 4.04-2.044 7.601-5.153 9.71 2.001 1.591 4.529 2.548 7.284 2.548 6.475 0 11.724-5.249 11.724-11.724s-5.248-11.726-11.723-11.726z" fill="#f5c84c"/><path d="m193.903 119.177c0-3.72-1.738-7.029-4.44-9.177-3.109 2.108-5.153 5.67-5.153 9.71 0 3.72 1.738 7.029 4.44 9.177 3.109-2.109 5.153-5.671 5.153-9.71z" fill="#fc8c48"/><path d="m54.526 150.288h-49.385c-1.458 0-2.641 1.182-2.641 2.641v80.448c0 1.458 1.182 2.641 2.641 2.641h49.386c1.458 0 2.641-1.182 2.641-2.641v-80.448c-.001-1.458-1.183-2.641-2.642-2.641z" fill="#70d6f9"/><path d="m69.36 155.445h-12.193v74.127h12.193c1.458 0 2.641-1.182 2.641-2.641v-68.846c0-1.458-1.182-2.64-2.641-2.64z" fill="#dae6f1"/><path d="m237.052 177.889c-2.706-5.479-9.308-7.773-14.828-5.153l-43.724 20.745-.03.007c2.849-1.94 4.717-4.458 4.717-7.747 0-14.181-18.693-11.602-33.518-11.602-9.186 0-23.692-4.949-33.399-8.715-7.007-2.718-14.561-3.71-22.035-2.926l-22.228 2.333-.004 51.847 9.478-1.029c9.427-1.023 18.961-.315 28.133 2.089l30.467 7.984c17.294 4.532 35.678 2.066 51.167-6.863l41.78-26.573c4.819-3.067 6.555-9.274 4.024-14.397z" fill="#f9d0b4"/><path d="m51.529 123.588h-2.07v-2.07c0-1.549-1.256-2.805-2.805-2.805s-2.805 1.256-2.805 2.805v2.07h-2.069c-1.549 0-2.805 1.256-2.805 2.805s1.256 2.805 2.805 2.805h2.069v2.07c0 1.549 1.256 2.805 2.805 2.805s2.805-1.256 2.805-2.805v-2.07h2.07c1.549 0 2.805-1.256 2.805-2.805-.001-1.55-1.256-2.805-2.805-2.805z" fill="#3caadc"/><path d="m62.601 102.532c-1.866-.337-3.355 1.068-3.355 2.749 0 1.689 1.483 3.077 3.355 2.749 1.254-.237 2.255-1.37 2.255-2.749-.001-1.351-.979-2.507-2.255-2.749z" fill="#87d147"/><path d="m150.601 17.532c-1.849-.334-3.355 1.047-3.355 2.749 0 1.657 1.454 3.082 3.355 2.749 1.27-.24 2.255-1.383 2.255-2.749-.001-1.351-.979-2.507-2.255-2.749z" fill="#3caadc"/><path d="m229.501 152.532c-1.349.255-2.255 1.464-2.255 2.749 0 1.549 1.249 2.805 2.805 2.805 1.491 0 2.805-1.2 2.805-2.805-.001-1.73-1.555-3.084-3.355-2.749z" fill="#ef4460"/><path d="m184.164 31.604c-3.995-.744-7.144-3.829-7.904-7.743-.038-.197-.313-.197-.351 0-.76 3.914-3.908 6.999-7.904 7.743-.201.037-.201.306 0 .344 3.995.744 7.144 3.829 7.904 7.743.038.197.313.197.351 0 .76-3.914 3.908-6.999 7.904-7.743.201-.038.201-.307 0-.344z" fill="#f5c84c"/><path d="m54.526 238.518h-49.385c-2.834 0-5.141-2.306-5.141-5.141v-80.448c0-2.835 2.306-5.141 5.141-5.141h49.386c2.834 0 5.141 2.306 5.141 5.141v80.448c-.001 2.835-2.307 5.141-5.142 5.141zm-49.385-85.73c-.078 0-.141.063-.141.141v80.448c0 .077.063.141.141.141h49.386c.078 0 .141-.063.141-.141v-80.448c0-.077-.063-.141-.141-.141z"/><path d="m69.36 232.072h-12.193c-1.381 0-2.5-1.119-2.5-2.5v-74.127c0-1.381 1.119-2.5 2.5-2.5h12.193c2.834 0 5.141 2.306 5.141 5.141v68.846c-.001 2.835-2.307 5.14-5.141 5.14zm-9.693-5h9.693c.078 0 .141-.063.141-.141v-68.846c0-.077-.063-.141-.141-.141h-9.693z"/><path d="m157.411 230.469c-5.992 0-12.021-.771-17.966-2.329l-30.467-7.984c-8.913-2.335-18.075-3.015-27.229-2.021l-9.479 1.028c-.707.076-1.412-.151-1.939-.625-.528-.474-.83-1.15-.83-1.86l.004-51.847c0-1.28.966-2.353 2.239-2.486l22.228-2.333c7.857-.823 15.881.24 23.201 3.081 14.207 5.511 25.747 8.545 32.494 8.545 1.934 0 3.991-.046 5.98-.09 10.303-.23 20.961-.466 26.482 4.934 2.359 2.308 3.556 5.423 3.556 9.259 0 .559-.039 1.097-.115 1.618l35.582-16.882c6.712-3.183 14.851-.357 18.141 6.305 3.104 6.281.986 13.854-4.926 17.614l-41.78 26.573c-.03.02-.062.038-.093.057-10.839 6.247-22.884 9.442-35.083 9.443zm-67.495-17.778c6.846 0 13.653.878 20.33 2.628l30.467 7.984c16.748 4.386 34.231 2.05 49.237-6.583l41.733-26.544c3.753-2.387 5.097-7.193 3.127-11.181-2.089-4.229-7.256-6.025-11.516-4.002l-43.474 20.626c-9.71 6.549-28.342 6.801-31.121 6.801-1.381 0-2.499-1.119-2.5-2.499 0-1.381 1.119-2.5 2.499-2.501 6.25-.003 21.228-1.227 28.243-5.897.092-.072.189-.14.293-.2 2.128-1.496 3.45-3.334 3.45-5.583 0-2.475-.671-4.334-2.051-5.684-4.019-3.93-14.039-3.707-22.876-3.51-2.017.045-4.103.091-6.092.091-9.42 0-23.854-4.831-34.302-8.883-6.583-2.555-13.801-3.513-20.871-2.771l-19.989 2.098-.004 46.81 6.708-.728c2.905-.314 5.811-.472 8.709-.472z"/><path d="m182.179 133.401c-7.844 0-14.225-6.381-14.225-14.225s6.381-14.225 14.225-14.225c3.239 0 6.297 1.068 8.84 3.091.623.495.973 1.257.942 2.052s-.437 1.528-1.095 1.975c-2.54 1.722-4.056 4.578-4.056 7.641 0 2.822 1.274 5.454 3.495 7.22.623.495.973 1.257.942 2.052s-.437 1.527-1.095 1.974c-2.357 1.6-5.115 2.445-7.973 2.445zm0-23.449c-5.087 0-9.225 4.138-9.225 9.225s4.138 9.225 9.225 9.225c.808 0 1.602-.104 2.367-.307-1.766-2.406-2.735-5.322-2.735-8.385 0-3.433 1.234-6.697 3.412-9.243-.967-.34-1.992-.515-3.044-.515z"/><path d="m196.034 133.934c-3.239 0-6.296-1.068-8.84-3.09-.622-.495-.973-1.257-.942-2.052s.437-1.528 1.095-1.975c2.54-1.722 4.056-4.578 4.056-7.641 0-2.823-1.273-5.454-3.495-7.22-.623-.495-.973-1.257-.942-2.052s.437-1.528 1.095-1.975c2.359-1.6 5.117-2.445 7.975-2.445 7.844 0 14.225 6.381 14.225 14.225-.002 7.844-6.383 14.225-14.227 14.225zm-3.043-5.515c.967.34 1.99.515 3.043.515 5.087 0 9.225-4.138 9.225-9.224 0-5.087-4.138-9.225-9.225-9.225-.807 0-1.602.104-2.367.307 1.766 2.406 2.735 5.322 2.735 8.385 0 3.432-1.234 6.696-3.411 9.242z"/><path d="m188.75 131.387c-.552 0-1.102-.183-1.556-.543-3.422-2.721-5.384-6.778-5.384-11.134 0-4.723 2.336-9.126 6.249-11.779.905-.614 2.103-.568 2.959.112 3.422 2.719 5.384 6.777 5.384 11.134 0 4.723-2.336 9.126-6.249 11.779-.424.288-.915.431-1.403.431zm.587-18.02c-1.606 1.696-2.526 3.957-2.526 6.343 0 2.146.736 4.181 2.065 5.81 1.606-1.697 2.526-3.957 2.526-6.343 0-2.147-.736-4.182-2.065-5.81z"/><path d="m131.942 132.389h-37.014c-1.381 0-2.5-1.119-2.5-2.5s1.119-2.5 2.5-2.5h37.014c1.381 0 2.5 1.119 2.5 2.5s-1.119 2.5-2.5 2.5z"/><path d="m136.156 110.317h-32.283c-1.381 0-2.5-1.119-2.5-2.5s1.119-2.5 2.5-2.5h32.283c1.381 0 2.5 1.119 2.5 2.5s-1.119 2.5-2.5 2.5z"/><path d="m147.121 110.317h-2.924c-1.381 0-2.5-1.119-2.5-2.5s1.119-2.5 2.5-2.5h2.924c1.381 0 2.5 1.119 2.5 2.5s-1.119 2.5-2.5 2.5z"/><path d="m217.214 144.832h-127.992c-5.594 0-10.145-4.551-10.145-10.145v-75.013c0-5.594 4.551-10.145 10.145-10.145h100.57c.902 0 1.735.486 2.178 1.272s.428 1.751-.039 2.522l-20.66 34.113c-.748 1.234-.771 2.722-.062 3.979.708 1.258 1.992 2.008 3.435 2.008h50.216c1.381 0 2.5 1.119 2.5 2.5v38.764c-.002 5.594-4.552 10.145-10.146 10.145zm-127.992-90.303c-2.837 0-5.145 2.308-5.145 5.145v75.014c0 2.837 2.308 5.145 5.145 5.145h127.992c2.837 0 5.145-2.308 5.145-5.145v-36.264h-47.716c-3.272 0-6.185-1.702-7.791-4.553-1.606-2.852-1.554-6.225.142-9.023l18.362-30.318h-96.134z"/><path d="m154.644 120.993h-58.293c-2.068 0-3.75-1.683-3.75-3.75v-18.851c0-2.067 1.682-3.75 3.75-3.75h58.292c2.067 0 3.75 1.683 3.75 3.75v18.852c.001 2.067-1.682 3.749-3.749 3.749zm-57.043-5h55.792v-16.351h-55.792zm57.043-16.351h.01z"/><path d="m247.047 98.424h-72.404c-3.272 0-6.185-1.702-7.791-4.553-1.606-2.852-1.554-6.225.142-9.023l36.202-59.775c1.635-2.699 4.495-4.31 7.649-4.31h.001c3.155 0 6.015 1.611 7.648 4.31l36.202 59.775c1.695 2.799 1.748 6.173.142 9.023s-4.519 4.553-7.791 4.553zm-36.202-72.661c-1.412 0-2.641.692-3.372 1.899l-36.202 59.775c-.748 1.234-.771 2.722-.062 3.979.708 1.258 1.992 2.008 3.435 2.008h72.404c1.442 0 2.727-.75 3.435-2.007.709-1.258.686-2.745-.062-3.979l-36.202-59.775c-.733-1.208-1.962-1.9-3.374-1.9z"/><path d="m169.896 87.383h-88.319c-1.381 0-2.5-1.119-2.5-2.5v-16.815c0-1.381 1.119-2.5 2.5-2.5h98.501c.902 0 1.735.486 2.178 1.272s.428 1.751-.039 2.522l-10.183 16.814c-.453.75-1.264 1.207-2.138 1.207zm-85.819-5h84.409l7.155-11.814h-91.564z"/><path d="m210.845 71.911c-2.882 0-5.395-2.049-5.975-4.871l-3.235-15.718c-.999-4.848 1.96-9.667 6.735-10.97 1.618-.44 3.329-.442 4.949 0 4.775 1.303 7.734 6.121 6.736 10.97l-3.236 15.719c-.581 2.822-3.093 4.87-5.974 4.87zm0-26.89c-.39 0-.779.052-1.159.155-2.236.61-3.622 2.866-3.154 5.137l3.236 15.72c.105.509.558.878 1.077.878s.973-.369 1.078-.878l3.236-15.719c.467-2.271-.919-4.527-3.156-5.138-.379-.103-.769-.155-1.158-.155z"/><path d="m210.845 89.613c-4.495 0-8.151-3.656-8.151-8.151s3.656-8.151 8.151-8.151 8.151 3.656 8.151 8.151-3.656 8.151-8.151 8.151zm0-11.302c-1.737 0-3.151 1.414-3.151 3.151s1.414 3.151 3.151 3.151 3.151-1.414 3.151-3.151-1.414-3.151-3.151-3.151z"/></svg>