<svg height="512" viewBox="0 0 64 64" width="512" xmlns="http://www.w3.org/2000/svg"><g id="Neural_network" data-name="Neural network"><circle cx="54" cy="17" fill="#5eac24" r="3"/><circle cx="47" cy="27" fill="#7ed63e" r="3"/><circle cx="58" cy="36" fill="#5eac24" r="3"/><circle cx="58" cy="58" fill="#5eac24" r="3"/><circle cx="53" cy="48" fill="#7ed63e" r="3"/><circle cx="58" cy="6" fill="#7ed63e" r="3"/><path d="m32 10v44a7 7 0 1 1 -14-.08 7.265 7.265 0 0 1 .29-1.93c-.1 0-.19.01-.29.01a6 6 0 0 1 -6-6.01v-.09a4.712 4.712 0 0 1 -1 .1 5 5 0 0 1 -5-5 4.893 4.893 0 0 1 .42-1.99l-.02.02a8.979 8.979 0 0 1 2.76-15.56v-.01a7.995 7.995 0 0 1 5.84-13.46 7.836 7.836 0 0 1 3.03.6c-.02-.23-.03-.46-.03-.7a7.089 7.089 0 0 1 6.9-6.9 7 7 0 0 1 7.1 7z" fill="#ffdaaa"/><path d="m21.03 9.6c-.02-.23-.03-.46-.03-.7a7.066 7.066 0 0 1 3.405-5.868 7.11 7.11 0 0 0 -6.325 5.968 7.829 7.829 0 0 1 2.95.6z" fill="#ffc477"/><path d="m26.85 59.91a7.049 7.049 0 0 1 -5.85-6.99 7.265 7.265 0 0 1 .29-1.93c-.1 0-.19.01-.29.01a6 6 0 0 1 -6-6.01v-.09a4.712 4.712 0 0 1 -1 .1 5 5 0 0 1 -5-5 4.893 4.893 0 0 1 .42-1.99l-.02.02a8.979 8.979 0 0 1 2.76-15.56v-.01a7.986 7.986 0 0 1 1.86-12.394 7.99 7.99 0 0 0 -4.86 13.394v.01a8.979 8.979 0 0 0 -2.76 15.56l.02-.02a4.893 4.893 0 0 0 -.42 1.99 5 5 0 0 0 5 5 4.712 4.712 0 0 0 1-.1v.09a6 6 0 0 0 6 6.01c.1 0 .19-.01.29-.01a7.265 7.265 0 0 0 -.29 1.93 6.987 6.987 0 0 0 10.655 6.042 7.272 7.272 0 0 1 -1.805-.052z" fill="#ffc477"/><path d="m54 21a4 4 0 1 1 4-4 4 4 0 0 1 -4 4zm0-6a2 2 0 1 0 2 2 2 2 0 0 0 -2-2z"/><path d="m46 16h2v2h-2z"/><path d="m47 31a4 4 0 1 1 4-4 4 4 0 0 1 -4 4zm0-6a2 2 0 1 0 2 2 2 2 0 0 0 -2-2z"/><path d="m39 26h2v2h-2z"/><path d="m58 40a4 4 0 1 1 4-4 4 4 0 0 1 -4 4zm0-6a2 2 0 1 0 2 2 2 2 0 0 0 -2-2z"/><path d="m50 35h2v2h-2z"/><path d="m50 5h2v2h-2z"/><path d="m58 62a4 4 0 1 1 4-4 4 4 0 0 1 -4 4zm0-6a2 2 0 1 0 2 2 2 2 0 0 0 -2-2z"/><path d="m50 57h2v2h-2z"/><path d="m53 52a4 4 0 1 1 4-4 4 4 0 0 1 -4 4zm0-6a2 2 0 1 0 2 2 2 2 0 0 0 -2-2z"/><path d="m45 47h2v2h-2z"/><path d="m58 10a4 4 0 1 1 4-4 4 4 0 0 1 -4 4zm0-6a2 2 0 1 0 2 2 2 2 0 0 0 -2-2z"/><path d="m43 47h-9a3 3 0 0 0 -3 3v4a6 6 0 0 1 -6.994 5.921 5.954 5.954 0 0 1 -4.9-7.018 7 7 0 0 0 5.894-6.903 1 1 0 0 1 2 0v1h2v-1a3 3 0 0 0 -6 0 5 5 0 1 1 -10-.155 5.171 5.171 0 0 1 5.251-4.845h1.749a5.006 5.006 0 0 0 5-5v-1h-2v1a3 3 0 0 1 -3 3h-1.749a7.227 7.227 0 0 0 -7.171 5.992c-.029 0-.051.008-.08.008a4 4 0 0 1 0-8v-2a5.991 5.991 0 0 0 -4.831 2.456 7.9 7.9 0 0 1 -2.169-5.456 8 8 0 0 1 13.452-5.854l1.363-1.463a9.917 9.917 0 0 0 -9.315-2.355 7 7 0 0 1 5.5-11.328 6.837 6.837 0 0 1 2.115.332 7.993 7.993 0 0 0 7.885 6.668h1a1 1 0 0 1 1 1v3h2v-3a3 3 0 0 0 -3-3h-1a6 6 0 0 1 -6-6.085 6.115 6.115 0 0 1 5.914-5.915 5.862 5.862 0 0 1 4.3 1.728 5.958 5.958 0 0 1 1.786 4.272v5a3 3 0 0 0 3 3h10v-2h-10a1 1 0 0 1 -1-1v-5a8 8 0 0 0 -8.114-8 8.057 8.057 0 0 0 -7.844 7.242 8.985 8.985 0 0 0 -9.479 13.81 10 10 0 0 0 -5.563 8.948 9.876 9.876 0 0 0 3.24 7.337 5.985 5.985 0 0 0 5.76 7.663h.077a6.969 6.969 0 0 0 6 5.937 8.145 8.145 0 0 0 -.077.973 8.019 8.019 0 0 0 6.692 7.99 8.155 8.155 0 0 0 1.29.1 7.99 7.99 0 0 0 8.018-8v-4a1 1 0 0 1 1-1h9z"/><path d="m23 31h2v2h-2z"/><path d="m31 31h2v2h-2z"/><path d="m27 24h2v2h-2z"/><path d="m13 35v2a4 4 0 1 0 -4-4h2a2 2 0 1 1 2 2z"/><path d="m12 18a3 3 0 0 1 3-3v-2a5.006 5.006 0 0 0 -5 5z"/><path d="m25 8a2 2 0 0 1 2 2h2a4 4 0 0 0 -4-4z"/><path d="m26 55a1 1 0 0 1 -1 1h-1v2h1a3 3 0 0 0 3-3v-1h-2z"/><path d="m44 5a3 3 0 0 0 -3 3 1 1 0 0 1 -1 1h-5v2h5a3 3 0 0 0 3-3 1 1 0 0 1 1-1h4v-2z"/><path d="m43 56a3 3 0 0 0 -3-3h-5v2h5a1 1 0 0 1 1 1 3 3 0 0 0 3 3h4v-2h-4a1 1 0 0 1 -1-1z"/><path d="m31 38v7h2v-7a1 1 0 0 1 1-1h14v-2h-14a3 3 0 0 0 -3 3z"/><path d="m37 28v-2h-3a1 1 0 0 1 -1-1v-5h-2v5a3 3 0 0 0 3 3z"/></g></svg>