<svg height="512pt" viewBox="0 0 512 512" width="512pt" xmlns="http://www.w3.org/2000/svg"><path d="m422 181v105l-166 75-165-75v-105zm0 0" fill="#5a5a5a"/><path d="m422 181v105l-166 75v-180zm0 0" fill="#444"/><path d="m482 136v240h-30v-225zm0 0" fill="#fdbf00"/><path d="m482 136v240h-15v-232.5zm0 0" fill="#ff9f00"/><path d="m467 354.699219-45 45v112.300781h90v-112.300781zm0 0" fill="#ffd400"/><path d="m512 399.699219v112.300781h-45v-157.300781zm0 0" fill="#fdbf00"/><path d="m512 136-256 135-256-135 256-136zm0 0" fill="#6e6e6e"/><path d="m512 136-256 135v-271zm0 0" fill="#5a5a5a"/><path d="m256 91c-33.601562 0-60 19.800781-60 45s26.398438 45 60 45 60-19.800781 60-45-26.398438-45-60-45zm0 0" fill="#ffd400"/><path d="m316 136c0 25.199219-26.398438 45-60 45v-90c33.601562 0 60 19.800781 60 45zm0 0" fill="#fdbf00"/></svg>