<?xml version="1.0"?>
<svg xmlns="http://www.w3.org/2000/svg" viewBox="0 0 64 64" width="512" height="512"><g id="Insurance"><path d="M30,25.231V55a2,2,0,0,1-4,0V52a2,2,0,0,0-4,0v3a6,6,0,0,0,12,0V25.231a8.774,8.774,0,0,0-4,0Z" style="fill:#939598"/><path d="M32,7A26.991,26.991,0,0,0,5.01,33.48,9,9,0,0,1,23,34V27A27.028,27.028,0,0,1,32,7Z" style="fill:#5eac24"/><path d="M32,7a27.028,27.028,0,0,1,9,20v7a9,9,0,0,1,17.99-.52A26.991,26.991,0,0,0,32,7Z" style="fill:#7ed63e"/><path d="M32,7a27.028,27.028,0,0,0-9,20v7a9,9,0,0,1,7-8.769v0a8.774,8.774,0,0,1,4,0v0A9,9,0,0,1,41,34V27A27.028,27.028,0,0,0,32,7Z" style="fill:#4e901e"/><path d="M34,7.081V5a2,2,0,0,0-4,0V7.081C30.661,7.033,31.327,7,32,7S33.339,7.033,34,7.081Z" style="fill:#939598"/><circle cx="50" cy="52" r="9" style="fill:#ffa733"/><circle cx="50" cy="52" r="7" style="fill:#ffb655"/><circle cx="13" cy="46" r="7" style="fill:#ee8700"/><circle cx="13" cy="46" r="5" style="fill:#ff9811"/><path d="M41,35a1,1,0,0,0,1-1,8,8,0,0,1,15.992-.461.988.988,0,0,0,1.037.94,1,1,0,0,0,.961-1.018A28.145,28.145,0,0,0,35,6.166V5a3.015,3.015,0,0,0-3-3,3,3,0,0,0-3,3V6.166a28.145,28.145,0,0,0-24.99,27.3,1,1,0,0,0,2,.078A8,8,0,0,1,22,34a1,1,0,0,0,2,0,8.009,8.009,0,0,1,5-7.411V55a1,1,0,0,1-2,0V52a3,3,0,0,0-6,0v3a7,7,0,0,0,14,0V26.589A8.009,8.009,0,0,1,40,34,1,1,0,0,0,41,35Zm15.989-8.146A9.958,9.958,0,0,0,42,28.043V27A28,28,0,0,0,34.554,8.139,26.2,26.2,0,0,1,56.989,26.854ZM31,5a1,1,0,0,1,1-1,.974.974,0,0,1,.712.306A.957.957,0,0,1,33,5V6.025C32.684,6.014,32.016,6,32,6s-.684.014-1,.025ZM22,27v1.043A9.958,9.958,0,0,0,7.011,26.854,26.2,26.2,0,0,1,29.446,8.139,28,28,0,0,0,22,27ZM33,55a5,5,0,0,1-10,0V52a1,1,0,0,1,2,0v3a3,3,0,0,0,6,0V26.069a7.281,7.281,0,0,1,2,0ZM32,24a9.971,9.971,0,0,0-8,4.043V27A26.066,26.066,0,0,1,32,8.382,26.066,26.066,0,0,1,40,27v1.043A9.971,9.971,0,0,0,32,24Z"/><path d="M50,49a1,1,0,0,1,1,1,1,1,0,0,0,2,0,3,3,0,0,0-2-2.816V46a1,1,0,0,0-2,0v1.184A2.993,2.993,0,0,0,50,53a1,1,0,1,1-1,1,1,1,0,0,0-2,0,3,3,0,0,0,2,2.816V58a1,1,0,0,0,2,0V56.816A2.993,2.993,0,0,0,50,51a1,1,0,0,1,0-2Z"/><path d="M50,42A10,10,0,1,0,60,52,10.011,10.011,0,0,0,50,42Zm0,18a8,8,0,1,1,8-8A8.009,8.009,0,0,1,50,60Z"/><path d="M49,32v6a1,1,0,0,0,2,0V32a1,1,0,0,0-2,0Z"/><path d="M53,36v4a1,1,0,0,0,2,0V36a1,1,0,0,0-2,0Z"/><path d="M45,36v4a1,1,0,0,0,2,0V36a1,1,0,0,0-2,0Z"/><path d="M57,39v3a1,1,0,0,0,2,0V39a1,1,0,0,0-2,0Z"/><path d="M41,39v3a1,1,0,0,0,2,0V39a1,1,0,0,0-2,0Z"/><path d="M13,38a8,8,0,1,0,8,8A8.009,8.009,0,0,0,13,38Zm0,14a6,6,0,1,1,6-6A6.006,6.006,0,0,1,13,52Z"/><path d="M15,45a1,1,0,0,0,1-1,2,2,0,0,0-2-2,1,1,0,0,0-2,0v.051A2.5,2.5,0,0,0,12.5,47h1a.5.5,0,0,1,0,1H12a1,1,0,0,0-2,0,2,2,0,0,0,2,2,1,1,0,0,0,2,0v-.051A2.5,2.5,0,0,0,13.5,45h-1a.5.5,0,0,1,0-1H14A1,1,0,0,0,15,45Z"/><path d="M14,36V32a1,1,0,0,0-2,0v4a1,1,0,0,0,2,0Z"/><path d="M10,36V34a1,1,0,0,0-2,0v2a1,1,0,0,0,2,0Z"/><path d="M18,36V34a1,1,0,0,0-2,0v2a1,1,0,0,0,2,0Z"/></g></svg>
