<svg height="512pt" viewBox="0 -26 512.00042 512" width="512pt" xmlns="http://www.w3.org/2000/svg"><path d="m216.488281 388.390625h246.800781v-184.363281c-2.792968.796875-5.738281 1.230468-8.78125 1.230468-17.691406 0-32.085937-14.398437-32.085937-32.097656h-2c0 17.699219-14.394531 32.097656-32.082031 32.097656-17.691406 0-32.085938-14.398437-32.085938-32.097656h-2c0 17.699219-14.394531 32.097656-32.085937 32.097656-17.691407 0-32.082031-14.398437-32.082031-32.097656h-2c0 17.699219-14.394532 32.097656-32.085938 32.097656s-32.085938-14.398437-32.085938-32.097656h-2c0 17.699219-14.390624 32.097656-32.082031 32.097656-17.691406 0-32.085937-14.398437-32.085937-32.097656h-2c0 17.699219-14.390625 32.097656-32.085938 32.097656-17.691406 0-32.082031-14.398437-32.082031-32.097656h-2c0 17.699219-14.394531 32.097656-32.085937 32.097656-5.9375 0-11.503907-1.628906-16.28125-4.457031v236.589844h175.277343zm0 0" fill="#a2f9f9"/><path d="m374.492188 273.273438v-71.160157c-10.777344-5.183593-18.238282-16.210937-18.238282-28.953125h-2c0 17.699219-14.394531 32.097656-32.085937 32.097656-17.691407 0-32.085938-14.398437-32.085938-32.097656h-2c0 10.1875-4.773437 19.273438-12.191406 25.15625v74.957032zm0 0" fill="#75eae7"/><path d="m275.890625 319.207031h98.601563v69.183594h-98.601563zm0 0" fill="#75eae7"/><path d="m455.789062 205.226562v183.164063h15v-187.589844c-4.429687 2.625-9.542968 4.207031-15 4.425781zm0 0" fill="#75eae7"/><g fill="#fff"><path d="m268.390625 202.765625v71.042969c.59375-.332032 1.269531-.535156 2-.535156h13v-83.414063c-3.503906 5.730469-8.753906 10.28125-15 12.90625zm0 0"/><path d="m366.992188 197.097656v76.175782h13c.730468 0 1.40625.203124 2 .535156v-69.183594c-5.6875-1.144531-10.828126-3.800781-15-7.527344zm0 0"/><path d="m283.390625 388.390625v-69.183594h-13c-.730469 0-1.40625-.207031-2-.539062v69.722656zm0 0"/><path d="m381.992188 388.390625v-69.71875c-.597657.332031-1.269532.535156-2 .535156h-13v69.183594zm0 0"/></g><path d="m186 386.535156h284.789062v50.855469h-284.789062zm0 0" fill="#c6a07d"/><path d="m187.316406 437.390625v-232.242187c-16.519531-1.289063-29.570312-15.136719-29.570312-31.988282h-2c0 17.699219-14.390625 32.097656-32.085938 32.097656-17.691406 0-32.082031-14.398437-32.082031-32.097656h-2c0 17.699219-14.394531 32.097656-32.085937 32.097656-5.9375 0-11.503907-1.628906-16.28125-4.457031v236.589844zm0 0" fill="#c6a07d"/><path d="m166.710938 437.390625v-242.007813c-1.199219-1.25-2.296876-2.589843-3.285157-4.019531h-13.359375c-5.792968 8.386719-15.464844 13.894531-26.402344 13.894531s-20.613281-5.507812-26.40625-13.894531h-13.359374c-5.019532 7.261719-12.945313 12.359375-22.085938 13.597657v232.429687zm0 0" fill="#a2f9f9"/><path d="m309.964844 273.273438 15.226562-15.234376 15.222656 15.234376h21.046876c-.246094-.34375-.511719-.675782-.820313-.980469l-30.144531-30.164063c-1.40625-1.40625-3.316406-2.199218-5.304688-2.199218-1.992187 0-3.898437.792968-5.304687 2.199218l-30.148438 30.164063c-.304687.304687-.574219.636719-.816406.980469zm0 0" fill="#775436"/><path d="m385.144531 315.054688c0 2.832031-2.320312 5.152343-5.152343 5.152343h-109.601563c-2.835937 0-5.152344-2.320312-5.152344-5.152343v-37.628907c0-2.835937 2.316407-5.152343 5.152344-5.152343h109.601563c2.832031 0 5.152343 2.320312 5.152343 5.152343zm0 0" fill="#89c947"/><path d="m147.171875 332.230469c-4.140625 0-7.5-3.355469-7.5-7.5v-34.800781c0-4.144532 3.359375-7.5 7.5-7.5s7.5 3.355468 7.5 7.5v34.800781c0 4.144531-3.359375 7.5-7.5 7.5zm0 0" fill="#046699"/><path d="m406.859375 75.585938v-38.621094c0-3.207032-2.597656-5.800782-5.796875-5.800782h-82.554688c-14.742187-19.515624-38.109374-31.164062-62.507812-31.164062s-47.765625 11.648438-62.507812 31.164062h-82.550782c-3.203125 0-5.796875 2.597657-5.796875 5.800782v38.621094zm0 0" fill="#ffc502"/><path d="m24.40625 147.488281v25.671875c0 18.28125 14.816406 33.097656 33.085938 33.097656 18.273437 0 33.082031-14.816406 33.082031-33.097656 0 18.28125 14.816406 33.097656 33.085937 33.097656 18.273438 0 33.085938-14.816406 33.085938-33.097656 0 18.28125 14.8125 33.097656 33.085937 33.097656 18.269531 0 33.082031-14.816406 33.082031-33.097656 0 18.28125 14.8125 33.097656 33.085938 33.097656 18.269531 0 33.082031-14.816406 33.082031-33.097656 0 18.28125 14.816407 33.097656 33.085938 33.097656 18.273437 0 33.085937-14.816406 33.085937-33.097656 0 18.28125 14.8125 33.097656 33.085938 33.097656 18.269531 0 33.082031-14.816406 33.082031-33.097656 0 18.28125 14.8125 33.097656 33.085937 33.097656 18.269532 0 33.082032-14.816406 33.082032-33.097656v-25.671875zm0 0" fill="#fff"/><path d="m24.40625 147.488281v25.671875c0 18.28125 14.816406 33.097656 33.085938 33.097656 18.273437 0 33.082031-14.816406 33.082031-33.097656v-25.671875zm0 0" fill="#c0272d"/><path d="m156.746094 147.488281v25.671875c0 18.28125 14.8125 33.097656 33.085937 33.097656 18.269531 0 33.082031-14.816406 33.082031-33.097656v-25.671875zm0 0" fill="#c0272d"/><path d="m421.421875 147.488281v25.671875c0 18.28125 14.8125 33.097656 33.085937 33.097656 18.269532 0 33.085938-14.816406 33.085938-33.097656v-25.671875zm0 0" fill="#c0272d"/><path d="m289.085938 147.488281v25.671875c0 18.28125 14.8125 33.097656 33.082031 33.097656 18.273437 0 33.085937-14.816406 33.085937-33.097656v-25.671875zm0 0" fill="#c0272d"/><path d="m511.550781 143.796875-30.472656-64.519531c-1.21875-2.582032-4.550781-4.691406-7.402344-4.691406h-435.351562c-2.851563 0-6.183594 2.109374-7.402344 4.691406l-30.46875 64.519531c-1.21875 2.578125.117187 4.6875 2.96875 4.6875h505.15625c2.855469.003906 4.191406-2.109375 2.972656-4.6875zm0 0" fill="#fb8276"/><path d="m19.628906 103.1875h472.742188l-7.085938-15h-458.570312zm0 0" fill="#ef5050"/><path d="m7.105469 129.703125h497.789062l-7.085937-15h-483.617188zm0 0" fill="#ef5050"/><path d="m512 455.628906c0 2.835938-2.316406 5.152344-5.152344 5.152344h-501.695312c-2.835938 0-5.152344-2.316406-5.152344-5.152344v-14.148437c0-2.835938 2.316406-5.152344 5.152344-5.152344h501.695312c2.835938 0 5.152344 2.316406 5.152344 5.152344zm0 0" fill="#775436"/><path d="m276.605469 35.878906h-41.207031c-4.144532 0-7.5-3.359375-7.5-7.5 0-4.144531 3.355468-7.5 7.5-7.5h41.207031c4.140625 0 7.5 3.355469 7.5 7.5 0 4.140625-3.359375 7.5-7.5 7.5zm0 0" fill="#775436"/><path d="m295.164062 59.582031h-78.328124c-4.140626 0-7.5-3.359375-7.5-7.5s3.359374-7.5 7.5-7.5h78.328124c4.140626 0 7.5 3.359375 7.5 7.5 0 4.144531-3.359374 7.5-7.5 7.5zm0 0" fill="#775436"/></svg>