<svg height="507pt" viewBox="0 -19 507.51361 507" width="507pt" xmlns="http://www.w3.org/2000/svg"><path d="m454.234375 159.625v248.800781h-406.164063v-248.800781c0-17.738281 13.28125-32.398438 30.460938-34.519531 1.421875-.179688 2.878906-.28125 4.339844-.28125h336.5625c19.21875 0 34.800781 15.582031 34.800781 34.800781zm0 0" fill="#1c868e"/><path d="m454.234375 159.625v248.800781h-375.703125v-283.320312c1.421875-.179688 2.878906-.28125 4.339844-.28125h336.5625c19.21875 0 34.800781 15.582031 34.800781 34.800781zm0 0" fill="#40c4df"/><path d="m498.351562 420.566406v9.339844c0 20.117188-16.300781 36.4375-36.417968 36.4375h-421.558594c-20.121094 0-36.421875-16.320312-36.421875-36.4375v-9.339844c0-6.699218 5.441406-12.140625 12.140625-12.140625h470.121094c6.699218 0 12.136718 5.441407 12.136718 12.140625zm0 0" fill="#56c1b3"/><path d="m498.351562 420.566406v9.339844c0 20.117188-16.300781 36.4375-36.417968 36.4375h-391.097656c-20.121094 0-36.421876-16.320312-36.421876-36.4375v-9.339844c0-6.699218 5.441407-12.140625 12.140626-12.140625h439.660156c6.699218 0 12.136718 5.441407 12.136718 12.140625zm0 0" fill="#7befe4"/><path d="m307.410156 408.425781v10.222657c0 10.34375-8.398437 18.746093-18.746094 18.746093h-75.027343c-10.34375 0-18.746094-8.402343-18.746094-18.746093v-10.222657zm0 0" fill="#56c1b3"/><path d="m432.652344 156.425781v252h-363v-252c0-5.140625 3.882812-9.378906 8.882812-9.921875.359375-.058594.738282-.078125 1.117188-.078125h343c5.523437 0 10 4.480469 10 10zm0 0" fill="#d8d6d7"/><path d="m432.652344 156.425781v252h-332.539063v-262h322.539063c5.523437 0 10 4.480469 10 10zm0 0" fill="#fff"/><path d="m454.234375 159.625v248.800781h-21.582031v-252c0-5.519531-4.476563-10-10-10h-343c-.378906 0-.757813.019531-1.117188.078125v-21.398437c1.417969-.179688 2.878906-.28125 4.339844-.28125h336.558594c19.21875 0 34.800781 15.582031 34.800781 34.800781zm0 0" fill="#40c4df"/><path d="m468.761719 76.59375v79.480469c0 17.960937-53.378907 32.515625-119.222657 32.515625s-119.222656-14.554688-119.222656-32.515625v-82.1875zm0 0" fill="#1c868e"/><path d="m268.875 266.589844h-.667969c-5.519531 0-10-4.476563-10-10v-25.332032c0-5.523437 4.480469-10 10-10h.667969c5.519531 0 10 4.476563 10 10v25.332032c0 5.523437-4.480469 10-10 10zm0 0" fill="#40c4df"/><path d="m503.519531 60.335938-152.164062 60.945312-155.792969-60.945312 155.792969-56.078126zm0 0" fill="#40c4df"/><path d="m504.902344 56.582031-152.164063-56.078125c-.882812-.328125-1.851562-.328125-2.738281-.011718l-155.792969 56.082031c-3.464843 1.246093-3.535156 6.144531-.101562 7.488281l32.214843 12.601562v44.175782h-143.398437c-21.394531 0-38.800781 17.40625-38.800781 38.800781v244.789063h-27.980469c-8.902344 0-16.140625 7.242187-16.140625 16.140624v9.351563c0 22.289063 18.132812 40.421875 40.421875 40.421875h421.574219c22.289062 0 40.421875-18.132812 40.421875-40.421875v-9.351563c0-8.898437-7.238281-16.140624-16.140625-16.140624h-27.976563v-230.496094c9.078125-5 14.464844-10.964844 14.464844-17.859375v-79.109375l32.242187-12.914063c3.386719-1.359375 3.332032-6.203125-.105468-7.46875zm-240.695313 126.277344v34.984375c-5.773437 1.726562-10 7.082031-10 13.410156v25.335938c0 7.71875 6.28125 14 14 14h.667969c7.71875 0 14-6.28125 14-14v-25.335938c0-6.566406-4.558594-12.082031-10.667969-13.582031v-32.820313c46.429688 10.574219 111.917969 10.144532 156.492188-.417968v219.984375h-355v-248c0-3.308594 2.691406-6 6-6h146.617187v5.65625c.003906 11.632812 15.289063 20.628906 37.890625 26.785156zm0-8.34375c-19.265625-5.59375-29.890625-12.585937-29.890625-18.441406v-76.28125l29.890625 11.691406zm4 50.742187h.667969c3.308594 0 6 2.691407 6 6v25.332032c0 3.308594-2.691406 6-6 6h-.667969c-3.308593 0-6-2.691406-6-6v-25.332032c0-3.308593 2.691407-6 6-6zm35.257813 187.179688v6.214844c0 8.128906-6.613282 14.746094-14.742188 14.746094h-75.03125c-8.128906 0-14.746094-6.617188-14.746094-14.746094v-6.214844zm-251.34375-252.796875c0-16.984375 13.816406-30.800781 30.800781-30.800781h143.398437v13.578125h-146.621093c-7.71875 0-14 6.285156-14 14v248.011719h-13.578125zm434.15625 252.789063c4.488281 0 8.136718 3.652343 8.136718 8.140624v9.351563c0 17.875-14.542968 32.421875-32.421874 32.421875h-421.570313c-17.878906 0-32.425781-14.542969-32.425781-32.421875v-9.351563c0-4.488281 3.652344-8.140624 8.140625-8.140624.335937 0 28.308593.011718 174.808593.011718v6.210938c0 12.542968 10.203126 22.746094 22.746094 22.746094h75.03125c12.542969 0 22.742188-10.203126 22.742188-22.746094v-6.210938c10.792968-.003906 167.679687-.011718 174.8125-.011718zm-49.578125-8v-222.078126c4.9375-1.402343 9.5-2.945312 13.601562-4.625v226.703126zm28.066406-248.355469c0 21.988281-114.972656 39.277343-192.558594 20.558593v-82.019531l77.691407 30.390625c.949218.375 2 .371094 2.945312-.011718l111.921875-44.828126zm-113.425781-39.09375-72.203125-28.246094 72.484375-27.402344c4.949218-1.871093 2.113281-9.351562-2.828125-7.484375l-80.773438 30.539063-35.828125-14.011719c-.285156-.15625-.585937-.277344-.910156-.359375l-24.34375-9.519531 144.402344-51.980469 141.03125 51.976563zm0 0" fill="#491352"/></svg>